<?xml version="1.0" encoding="UTF-8"?>
<svg width="120px" height="43px" viewBox="0 0 120 43" version="1.1" xmlns="http://www.w3.org/2000/svg" xmlns:xlink="http://www.w3.org/1999/xlink">
    <!-- Generator: Sketch 60.1 (88133) - https://sketch.com -->
    <title>accessibility</title>
    <desc>Created with Sketch.</desc>
    <g id="Page-1" stroke="none" stroke-width="1" fill="none" fill-rule="evenodd">
        <g id="accessibility">
            <path d="M0,1.33538462 C0,0.443076923 0.338461538,0 1.01538462,0 L118.984615,0 C119.661538,0 120,0.443076923 120,1.33538462 L120,40.9661538 C120,41.84 119.661538,42.2707692 118.984615,42.2707692 L1.01538462,42.2707692 C0.338461538,42.2707692 0,41.8461538 0,40.9661538 L0,1.33538462 Z" id="Path" fill="#4A8504"></path>
            <path d="M89.8461538,12.8061538 L88.6153846,12.4246154 C88.5692994,11.7852606 88.8214645,11.1605274 89.2984615,10.7323077 C89.6190988,10.4770243 90.0050822,10.3170864 90.4123077,10.2707692 L113.390769,7.38461538 C115.314872,7.13025641 116.293333,7.91589744 116.326154,9.74153846 L116.781538,30.2523077 C116.818462,32.0738462 115.848205,32.9169231 113.870769,32.7815385 L91.7661538,31.04 C91.7661538,30.6830769 91.7661538,30.3446154 91.7661538,30.0246154 L112.178462,31.6430769 C113.932308,31.7661538 114.793846,31.0276923 114.756923,29.3661538 L114.461538,10.9846154 C114.406154,9.32923077 113.532308,8.62769231 111.827692,8.88 L91.4153846,11.4646154 C90.6379747,11.4768167 89.9790914,12.0400973 89.8461538,12.8061538 Z" id="Path" fill="#274602"></path>
            <path d="M112.553846,7.90769231 C113.870769,7.84205128 114.672821,8.33230769 114.96,9.37846154 C115.102786,9.75855831 115.179784,10.1601997 115.187692,10.5661538 L115.618462,30.5230769 L115.618462,31.1015385 C115.651282,32.8246154 114.746667,33.6451282 112.904615,33.5630769 C112.847383,33.5562383 112.78954,33.5562383 112.732308,33.5630769 L90.9292308,31.92 L90.9292308,29.9630769 L110.984615,31.5076923 C111.025332,31.5005656 111.066976,31.5005656 111.107692,31.5076923 C111.696642,31.5721928 112.29094,31.4494573 112.806154,31.1569231 C113.100811,30.6984819 113.235003,30.155219 113.187692,29.6123077 L112.830769,11.7661538 C112.828178,11.3915355 112.750765,11.0212105 112.603077,10.6769231 L112.48,10.5723077 C111.91592,10.3157984 111.291981,10.2199716 110.676923,10.2953846 L90.4246154,12.8 C89.7779904,12.8263569 89.2092296,13.2353806 88.9784615,13.84 L87.2553846,12.7507692 C87.3020946,12.2531639 87.5485604,11.7957589 87.9384615,11.4830769 C88.2908152,11.0531006 88.8053437,10.7880405 89.36,10.7507692 L112.129231,7.93846154 C112.270014,7.9196023 112.411815,7.9093269 112.553846,7.90769231 L112.553846,7.90769231 Z" id="Path" fill="#FFCC00"></path>
            <path d="M105.132308,14.3630769 C105.422391,14.6143855 105.589052,14.9792745 105.589052,15.3630769 C105.589052,15.7468794 105.422391,16.1117683 105.132308,16.3630769 C104.889824,16.6389615 104.539602,16.7961124 104.172308,16.7938462 C103.586177,16.8166593 103.04671,16.4755729 102.815976,15.9362844 C102.585243,15.3969959 102.71106,14.7712688 103.132308,14.3630769 C103.393975,14.0641363 103.775161,13.8972267 104.172308,13.9076923 C104.544724,13.906426 104.897686,14.0738567 105.132308,14.3630769 L105.132308,14.3630769 Z M99.0276923,13.9076923 C99.4093228,13.9041919 99.7726091,14.0711682 100.018462,14.3630769 C100.308545,14.6143855 100.475206,14.9792745 100.475206,15.3630769 C100.475206,15.7468794 100.308545,16.1117683 100.018462,16.3630769 C99.766455,16.6437647 99.404842,16.8009877 99.0276923,16.7938462 C98.6449451,16.8022941 98.2771401,16.6453042 98.0184615,16.3630769 C97.7441248,16.1027957 97.5887656,15.7412396 97.5887656,15.3630769 C97.5887656,14.9849143 97.7441248,14.6233582 98.0184615,14.3630769 C98.2705804,14.0689765 98.6403578,13.9021257 99.0276923,13.9076923 L99.0276923,13.9076923 Z M99.0276923,19.2246154 C99.800812,19.2832089 100.415253,19.8976496 100.473846,20.6707692 C100.466818,21.0553811 100.302187,21.4202392 100.018462,21.68 C99.7670944,21.9622923 99.4056496,22.1216872 99.0276923,22.1169231 C98.6439823,22.1238021 98.2760244,21.9645032 98.0184615,21.68 C97.7461613,21.4144067 97.5911049,21.0511317 97.5876923,20.6707692 C97.6246176,19.8902403 98.247328,19.2648689 99.0276923,19.2246154 L99.0276923,19.2246154 Z M104.172308,19.2246154 C104.544724,19.2233491 104.897686,19.3907797 105.132308,19.68 C105.423516,19.9263852 105.590332,20.2893234 105.587692,20.6707692 C105.580664,21.0553811 105.416033,21.4202392 105.132308,21.68 C104.890466,21.9575038 104.540405,22.1168262 104.172308,22.1169231 C103.778737,22.1286991 103.39938,21.9693242 103.132308,21.68 C102.860007,21.4144067 102.704951,21.0511317 102.701538,20.6707692 C102.695213,20.2937817 102.852295,19.932493 103.132308,19.68 C103.393975,19.3810594 103.775161,19.2141498 104.172308,19.2246154 L104.172308,19.2246154 Z M93.9138462,13.9076923 C94.293855,13.9115936 94.6542016,14.0772187 94.9046154,14.3630769 C95.1789521,14.6233582 95.3343113,14.9849143 95.3343113,15.3630769 C95.3343113,15.7412396 95.1789521,16.1027957 94.9046154,16.3630769 C94.6484408,16.6379263 94.2895689,16.7939575 93.9138462,16.7938462 C93.5240886,16.8014958 93.149013,16.6452143 92.88,16.3630769 C92.4821816,15.9433458 92.3699365,15.3282116 92.593874,14.7950271 C92.8178115,14.2618426 93.3356267,13.9113337 93.9138462,13.9015385 L93.9138462,13.9076923 Z M92.88,19.6923077 C93.1427755,19.3984647 93.5196702,19.2324516 93.9138462,19.2369231 C94.6869921,19.2862674 95.2993195,19.9091979 95.3353846,20.6830769 C95.329301,21.0628758 95.1746609,21.4251755 94.9046154,21.6923077 C94.6490758,21.9688131 94.2903442,22.1270115 93.9138462,22.1292308 C93.5233031,22.1345256 93.1483796,21.9760757 92.88,21.6923077 C92.6076997,21.4267144 92.4526433,21.0634394 92.4492308,20.6830769 C92.4429056,20.3060894 92.5999877,19.9448007 92.88,19.6923077 Z M93.7107692,25.0892308 C94.0922151,25.0865909 94.4551532,25.2534072 94.7015385,25.5446154 C94.9820415,25.7859864 95.1474475,26.1346801 95.1569231,26.5046154 C95.1568858,26.8925331 94.9911975,27.2619733 94.7015385,27.52 C94.4551532,27.8112082 94.0922151,27.9780245 93.7107692,27.9753846 C93.3234347,27.9809512 92.9536573,27.8141005 92.7015385,27.52 C92.4228945,27.2562387 92.2667897,26.8882775 92.2707692,26.5046154 C92.2761989,26.1389856 92.4320138,25.791741 92.7015385,25.5446154 C92.9513044,25.2459295 93.3214236,25.0744108 93.7107692,25.0768959 L93.7107692,25.0892308 Z M104.953846,25.5446154 C105.223371,25.791741 105.379186,26.1389856 105.384615,26.5046154 C105.388595,26.8882775 105.23249,27.2562387 104.953846,27.52 C104.696919,27.8093223 104.328474,27.9748842 103.941538,27.9748842 C103.554603,27.9748842 103.186158,27.8093223 102.929231,27.52 C102.650587,27.2562387 102.494482,26.8882775 102.498462,26.5046154 C102.495703,25.918961 102.853923,25.3920955 103.399557,25.1792984 C103.945191,24.9665013 104.565528,25.1117291 104.96,25.5446154 L104.953846,25.5446154 Z M100.270769,26.5046154 C100.270732,26.8925331 100.105044,27.2619733 99.8153846,27.52 C99.580763,27.8092203 99.2278011,27.9766509 98.8553846,27.9753917 C98.4669655,27.9736837 98.0985355,27.8029478 97.8461538,27.5076923 C97.5675099,27.243931 97.4114051,26.8759698 97.4153846,26.4923077 C97.4688256,25.7125433 98.1049132,25.1004087 98.8861538,25.0769159 C99.2585704,25.0756568 99.6115322,25.2430874 99.8461538,25.5323077 C100.115241,25.7791873 100.269139,26.1271299 100.270769,26.4923077 L100.270769,26.5046154 Z M110.769231,14.3630769 C111.043568,14.6233582 111.198927,14.9849143 111.198927,15.3630769 C111.198927,15.7412396 111.043568,16.1027957 110.769231,16.3630769 C110.216946,16.922159 109.316005,16.9276694 108.756923,16.3753846 C108.197841,15.8230999 108.192331,14.922159 108.744615,14.3630769 C109.003849,14.0643937 109.383105,13.8973402 109.778462,13.9076923 C110.15847,13.9115936 110.518817,14.0772187 110.769231,14.3630769 L110.769231,14.3630769 Z M109.778462,19.2246154 C110.551607,19.2739597 111.163935,19.8968902 111.2,20.6707692 C111.193916,21.0505681 111.039276,21.4128678 110.769231,21.68 C110.506434,21.9589573 110.140171,22.1171067 109.756923,22.1171067 C109.373675,22.1171067 109.007412,21.9589573 108.744615,21.68 C108.472315,21.4144067 108.317259,21.0511317 108.313846,20.6707692 C108.307521,20.2937817 108.464603,19.932493 108.744615,19.68 C109.006603,19.3779184 109.391154,19.2105257 109.790769,19.2246154 L109.778462,19.2246154 Z M109.575385,25.0769231 C109.95683,25.0742832 110.319769,25.2410995 110.566154,25.5323077 C110.846657,25.7736787 111.012063,26.1223724 111.021538,26.4923077 C111.021501,26.8802254 110.855813,27.2496656 110.566154,27.5076923 C110.319769,27.7989005 109.95683,27.9657168 109.575385,27.9630769 C109.18805,27.9686435 108.818273,27.8017928 108.566154,27.5076923 C108.28751,27.243931 108.131405,26.8759698 108.135385,26.4923077 C108.140814,26.1266779 108.296629,25.7794333 108.566154,25.5323077 C108.821032,25.2348483 109.196081,25.0676578 109.587692,25.0769231 L109.575385,25.0769231 Z" id="Shape" fill="#FFCC00"></path>
            <path d="M102.473846,13.0461538 C102.946067,12.5263987 103.617796,12.2330768 104.32,12.24 C105.000223,12.2366565 105.647826,12.5312259 106.092308,13.0461538 C106.59318,13.5010244 106.884737,14.1420063 106.898462,14.8184615 C106.89262,15.5180048 106.601435,16.1848404 106.092308,16.6646154 C105.641788,17.1683863 104.995798,17.4532503 104.32,17.4461538 C103.622645,17.4540291 102.953585,17.1707935 102.473846,16.6646154 C101.989747,16.1719431 101.71801,15.5091691 101.716923,14.8184615 C101.722067,14.1502404 101.994679,13.5119276 102.473846,13.0461538 L102.473846,13.0461538 Z" id="Path" fill="#274602"></path>
            <path d="M96.1415385,21.1261538 C96.1400592,21.8266199 95.8481541,22.495105 95.3353846,22.9723077 C94.8936084,23.4745331 94.2565674,23.7616143 93.5876923,23.76 C92.8713438,23.7859353 92.1792745,23.4983221 91.6923077,22.9723077 C91.1928425,22.4879422 90.9108885,21.8219091 90.9107548,21.1261538 C90.9084213,20.4513394 91.1924651,19.8072085 91.6923077,19.3538462 C92.1670463,18.8188484 92.8542516,18.5214349 93.5692308,18.5415385 C94.2431293,18.5411035 94.8827944,18.8384126 95.3169231,19.3538462 C95.8366992,19.7963974 96.1377856,20.4435084 96.1415385,21.1261538 Z" id="Path" fill="#274602"></path>
            <path d="M102.326154,25.0523077 C102.792375,24.5235452 103.467489,24.2264948 104.172308,24.24 C104.846206,24.2395587 105.485871,24.5368742 105.92,25.0523077 C106.439121,25.4965649 106.743664,26.1414789 106.756923,26.8246154 C106.74678,27.5295998 106.443535,28.1985222 105.92,28.6707692 C105.478224,29.1729946 104.841183,29.4601117 104.172308,29.4584615 C103.472961,29.4701137 102.801679,29.1837001 102.326154,28.6707692 C101.825016,28.1870331 101.540898,27.5211307 101.538462,26.8246154 C101.543021,26.1499872 101.828454,25.5077623 102.326154,25.0523077 L102.326154,25.0523077 Z" id="Path" fill="#274602"></path>
            <path d="M7.12,17.5015385 L7.81538462,18.0184615 C7.88307692,18.0861538 7.91384615,18.1353846 7.91384615,18.1784615 C7.91384615,18.2215385 7.91384615,18.2338462 7.83384615,18.2461538 C7.76746808,18.2535435 7.70506566,18.281517 7.65538462,18.3261538 C7.45772875,18.6122297 7.2397291,18.8837009 7.00307692,19.1384615 C6.6843347,19.4486405 6.33600869,19.7268891 5.96307692,19.9692308 C5.88211316,19.978462 5.80382694,19.9368725 5.76615385,19.8646154 C5.61381854,19.7518801 5.46794697,19.6306629 5.32923077,19.5015385 C5.26769231,19.5015385 5.23076923,19.4461538 5.23076923,19.4153846 C5.23076923,19.3846154 5.23076923,19.3723077 5.27384615,19.3476923 C5.45155328,19.2805521 5.61925711,19.1894537 5.77230769,19.0769231 C6.03504384,18.8743213 6.27446073,18.6431601 6.48615385,18.3876923 C6.69375726,18.1341717 6.88688495,17.8691347 7.06461538,17.5938462 C7.08307692,17.5261538 7.10153846,17.5015385 7.12,17.5015385 Z M15.9630769,13.1938462 C16.0553846,13.1938462 16.1046154,13.2492308 16.1046154,13.3538462 L16.1046154,13.7969231 C16.1046154,13.9015385 16.0553846,13.9569231 15.9630769,13.9569231 L5.42153846,13.9569231 C5.32923077,13.9569231 5.28,13.9015385 5.28,13.7969231 L5.28,13.3538462 C5.28,13.2492308 5.32923077,13.1938462 5.42153846,13.1938462 L15.9630769,13.1938462 Z M7.79076923,8.86153846 C8.44923077,9.18769231 8.78153846,9.37846154 8.78153846,9.44 C8.78153846,9.50153846 8.78153846,9.55076923 8.69538462,9.55076923 C8.58904925,9.54512195 8.48710389,9.59377769 8.42461538,9.68 C8.10370455,10.3243339 7.68892817,10.9174641 7.19384615,11.44 C6.83187314,11.8060271 6.44754552,12.1492501 6.04307692,12.4676923 C5.95203597,12.4637912 5.86697623,12.4212613 5.80923077,12.3507692 C5.69230769,12.2584615 5.56923077,12.16 5.44615385,12.0492308 C5.39358265,12.0205307 5.35891433,11.9673726 5.35384615,11.9076923 C5.63692308,11.6738462 5.92,11.4276923 6.20307692,11.1753846 C6.56466661,10.8415353 6.884903,10.4655158 7.15692308,10.0553846 C7.37828759,9.71315231 7.56192314,9.34794453 7.70461538,8.96615385 C7.74153846,8.89230769 7.76615385,8.86153846 7.79076923,8.86153846 Z M15.6307692,16.3138462 C15.7230769,16.3138462 15.7723077,16.3630769 15.7723077,16.4738462 L15.7723077,16.9107692 C15.7723077,17.0215385 15.7230769,17.0707692 15.6307692,17.0707692 L5.85230769,17.0707692 C5.75384615,17.0707692 5.70461538,17.0215385 5.70461538,16.9107692 L5.70461538,16.4738462 C5.70461538,16.3630769 5.75384615,16.3138462 5.85230769,16.3138462 L15.6307692,16.3138462 Z M7.08307692,10.6153846 L7.93846154,10.6153846 L7.93846154,16.5292308 C7.93846154,16.64 7.87692308,16.6892308 7.75384615,16.6892308 L7.25538462,16.6892308 C7.14461538,16.6892308 7.08307692,16.64 7.08307692,16.5292308 L7.08307692,10.6153846 Z M15.44,10.2338462 C15.5384615,10.2338462 15.5815385,10.2892308 15.5815385,10.3938462 L15.5815385,10.8369231 C15.5815385,10.9415385 15.5384615,10.9969231 15.44,10.9969231 L7.60615385,10.9969231 C7.51384615,10.9969231 7.46461538,10.9415385 7.46461538,10.8369231 L7.46461538,10.3938462 C7.46461538,10.2892308 7.51384615,10.2338462 7.60615385,10.2338462 L15.44,10.2338462 Z M9.75384615,17.6184615 C10.1019372,18.196743 10.4163078,18.7946635 10.6953846,19.4092308 C10.6953846,19.5323077 10.6646154,19.6 10.6092308,19.6123077 C10.4067268,19.7779394 10.1612704,19.8825251 9.90153846,19.9138462 C9.65347051,19.2419521 9.36789336,18.5845083 9.04615385,17.9446154 C9.04615385,17.8502564 9.23692308,17.7148718 9.61846154,17.5384615 C9.67811334,17.5322877 9.73417465,17.5679631 9.75384615,17.6246154 L9.75384615,17.6184615 Z M9.23076923,10.6153846 L10.0861538,10.6153846 L10.0861538,16.5292308 C10.0861538,16.64 10.0246154,16.6892308 9.90153846,16.6892308 L9.40923077,16.6892308 C9.29230769,16.6892308 9.23076923,16.64 9.23076923,16.5292308 L9.23076923,10.6153846 Z M11.4153846,10.6153846 L12.2707692,10.6153846 L12.2707692,16.5292308 C12.2707692,16.64 12.2092308,16.6892308 12.0861538,16.6892308 L11.5938462,16.6892308 C11.4769231,16.6892308 11.4153846,16.64 11.4153846,16.5292308 L11.4153846,10.6153846 Z M12.1230769,17.6246154 C12.5609968,18.2106542 12.9558769,18.8276544 13.3046154,19.4707692 C13.3046154,19.5938462 13.3046154,19.6615385 13.2246154,19.6676923 C13.0200462,19.8348682 12.772771,19.9414523 12.5107692,19.9753846 C12.1919656,19.2795968 11.8281162,18.605345 11.4215385,17.9569231 C11.4215385,17.8625641 11.6123077,17.7271795 11.9938462,17.5507692 C12.0490514,17.5412475 12.103253,17.5722199 12.1230769,17.6246154 L12.1230769,17.6246154 Z M13.5876923,10.6153846 L14.4430769,10.6153846 L14.4430769,16.5292308 C14.4430769,16.64 14.3815385,16.6892308 14.2584615,16.6892308 L13.76,16.6892308 C13.6492308,16.6892308 13.5876923,16.64 13.5876923,16.5292308 L13.5876923,10.6153846 Z M15.4338462,18.4061538 C15.7661538,18.7507692 16.0492308,19.0584615 16.2769231,19.3415385 C16.265044,19.3826373 16.2440041,19.4205091 16.2153846,19.4523077 C16.094952,19.6358559 15.9590743,19.8087911 15.8092308,19.9692308 C15.4580518,19.5298277 15.0733073,19.1183362 14.6584615,18.7384615 C14.4002554,18.5092015 14.1222455,18.3032683 13.8276923,18.1230769 C13.9382902,17.9324514 14.0727039,17.7566798 14.2276923,17.6 C14.2707692,17.5384615 14.3076923,17.5138462 14.3323077,17.5138462 C14.7048454,17.7846146 15.0565969,18.0828835 15.3846154,18.4061538 L15.4338462,18.4061538 Z" id="Shape" fill="#FFFFFF" fill-rule="nonzero"></path>
            <path d="M18.3015385,9.35384615 L18.7876923,9.35384615 C18.9169231,9.35384615 18.9784615,9.40307692 18.9784615,9.50153846 L18.9784615,19.8584615 C18.9784615,19.9630769 18.9169231,20.0184615 18.7876923,20.0184615 L18.3015385,20.0184615 C18.1846154,20.0184615 18.1230769,19.9630769 18.1230769,19.8584615 L18.1230769,9.50153846 C18.1230769,9.40307692 18.1846154,9.35384615 18.3015385,9.35384615 Z M20.9723077,9.35384615 L20.9723077,10.0676923 L18.72,10.0676923 C18.6092308,10.0676923 18.5538462,10.0246154 18.5538462,9.92615385 L18.5538462,9.49538462 C18.5538462,9.40307692 18.6092308,9.35384615 18.72,9.35384615 L20.9723077,9.35384615 Z M20.9723077,9.35384615 C21.1183491,9.33348745 21.2668459,9.36624409 21.3907692,9.44615385 C21.5428581,9.55986259 21.6462074,9.72698054 21.68,9.91384615 L20.4492308,12.9907692 C20.4442516,13.0357601 20.4442516,13.081163 20.4492308,13.1261538 C20.4539147,13.1650171 20.4738352,13.2004313 20.5046154,13.2246154 C20.9005376,13.62715 21.23258,14.0878588 21.4892308,14.5907692 C21.6598639,14.979124 21.7518909,15.3974284 21.76,15.8215385 C21.8009083,16.3702488 21.6834351,16.9191692 21.4215385,17.4030769 C21.1367588,17.8269813 20.6441469,18.0626808 20.1353846,18.0184615 C19.76,18.0184615 19.5630769,17.9384615 19.52,17.7846154 C19.4852429,17.575706 19.4337961,17.3699188 19.3661538,17.1692308 C19.3661538,17.0461538 19.3969231,16.9846154 19.4584615,16.9846154 L20.1107692,17.0707692 C20.3545867,17.1015579 20.584462,16.9500492 20.6523077,16.7138462 C20.7297414,16.3874668 20.7628597,16.0521443 20.7507692,15.7169231 C20.7351558,15.3327762 20.6297769,14.9576273 20.4430769,14.6215385 C20.2005247,14.1319857 19.8614111,13.6965806 19.4461538,13.3415385 C19.3969231,13.3046154 19.3723077,13.2738462 19.3723077,13.2492308 C19.3815255,13.1852893 19.4001908,13.1230718 19.4276923,13.0646154 L20.9723077,9.35384615 Z M28.5784615,12.0615385 C28.6646154,12.0615385 28.7138462,12.1107692 28.7138462,12.2092308 L28.7138462,12.6276923 C28.7138462,12.7261538 28.6646154,12.7753846 28.5784615,12.7753846 L21.44,12.7753846 C21.3476923,12.7753846 21.3046154,12.7261538 21.3046154,12.6276923 L21.3046154,12.2092308 C21.3046154,12.1107692 21.3476923,12.0615385 21.44,12.0615385 L28.5784615,12.0615385 Z M28.6707692,18 C28.7630769,18 28.8061538,18.0492308 28.8061538,18.1476923 L28.8061538,18.56 C28.8061538,18.6584615 28.7630769,18.7076923 28.6707692,18.7076923 L21.44,18.7076923 C21.3476923,18.7076923 21.3046154,18.6584615 21.3046154,18.56 L21.3046154,18.1476923 C21.3046154,18.0492308 21.3476923,18 21.44,18 L28.6707692,18 Z M28.2953846,10 C28.3815385,10 28.4246154,10.0492308 28.4246154,10.1476923 L28.4246154,10.56 C28.4246154,10.6584615 28.3815385,10.7076923 28.2953846,10.7076923 L21.9630769,10.7076923 C21.8707692,10.7076923 21.8276923,10.6584615 21.8276923,10.56 L21.8276923,10.1476923 C21.8276923,10.0492308 21.8707692,10 21.9630769,10 L28.2953846,10 Z M22.4246154,13.6307692 L27.8276923,13.6307692 L27.1446154,14.2953846 L23.1569231,14.2953846 L23.1569231,16.5292308 L22.4738462,17.1692308 C22.3569231,17.1692308 22.3015385,17.1138462 22.3015385,17.0092308 L22.3015385,13.7661538 C22.3015385,13.6615385 22.3446154,13.6061538 22.4246154,13.6061538 L22.4246154,13.6307692 Z M27.1446154,14.2953846 L27.8276923,13.6307692 C27.9384615,13.6307692 28,13.6861538 28,13.7907692 L28,17.0338462 C28,17.1384615 27.9569231,17.1938462 27.8707692,17.1938462 L22.4738462,17.1938462 L23.1569231,16.5292308 L27.1446154,16.5292308 L27.1446154,14.2953846 Z M27.4461538,15.0523077 C27.5323077,15.0523077 27.5692308,15.1015385 27.5692308,15.1938462 L27.5692308,15.5815385 C27.5692308,15.6738462 27.5323077,15.7169231 27.4461538,15.7169231 L22.8553846,15.7169231 C22.7692308,15.7169231 22.7261538,15.6738462 22.7261538,15.5815385 L22.7261538,15.1938462 C22.7261538,15.1015385 22.7692308,15.0523077 22.8553846,15.0523077 L27.4461538,15.0523077 Z M24,11.6 C24.1222512,11.8118817 24.2252288,12.0343134 24.3076923,12.2646154 C24.0730158,12.3843346 23.8221911,12.4693247 23.5630769,12.5169231 C23.5105063,12.3273714 23.4383214,12.1438156 23.3476923,11.9692308 C23.211244,11.7099257 23.0527091,11.4628583 22.8738462,11.2307692 C22.8738462,11.1815385 23.0830769,11.0523077 23.4892308,10.8553846 C23.6750436,11.0925524 23.8456418,11.3412558 24,11.6 L24,11.6 Z M25.7969231,9.13846154 C25.7969231,9.24307692 25.7538462,9.30461538 25.6676923,9.31076923 C25.5815385,9.31692308 25.5446154,9.40307692 25.5446154,9.55076923 L25.5446154,10.1969231 C25.5446154,10.3015385 25.4769231,10.3569231 25.3538462,10.3569231 L24.8615385,10.3569231 C24.7446154,10.3569231 24.6892308,10.3015385 24.6892308,10.1969231 L24.6892308,9.10153846 C24.6892308,9.00307692 24.7446154,8.95384615 24.8615385,8.95384615 C25.4707692,8.95384615 25.7846154,9.00923077 25.7846154,9.11384615 L25.7969231,9.13846154 Z M24.6769231,16.8369231 L25.5323077,16.8369231 L25.5323077,19.9138462 C25.5323077,20.0246154 25.4646154,20.0738462 25.3415385,20.0738462 L24.8492308,20.0738462 C24.7323077,20.0738462 24.6769231,20.0246154 24.6769231,19.9138462 L24.6769231,16.8369231 Z M26.5230769,10.8553846 L27.2123077,11.1384615 C27.3230769,11.1876923 27.3723123,11.2430769 27.3723123,11.3046154 C27.3727501,11.3477775 27.3411835,11.3846052 27.2984615,11.3907692 C27.2184615,11.3907692 27.1753846,11.3907692 27.1630769,11.4830769 C26.9994631,11.8565298 26.7929459,12.2096742 26.5476923,12.5353846 C26.5046154,12.5846154 26.4738462,12.6092308 26.4492308,12.6092308 C26.3830184,12.6023795 26.3195627,12.5791124 26.2646154,12.5415385 L25.8461538,12.3076923 C25.7846154,12.3076923 25.7538462,12.2646154 25.7538462,12.2523077 C25.7620101,12.2331637 25.7746769,12.2162746 25.7907692,12.2030769 C25.9356156,12.0082119 26.0652301,11.8024747 26.1784615,11.5876923 C26.2974056,11.3882709 26.3924205,11.17552 26.4615385,10.9538462 C26.4923077,10.8861538 26.5169231,10.8553846 26.5415385,10.8553846 L26.5230769,10.8553846 Z" id="Shape" fill="#FFFFFF" fill-rule="nonzero"></path>
            <path d="M32,10.1846154 L32.72,10.4615385 C32.5846154,11.2369231 32.4369231,11.9446154 32.2892308,12.5784615 C32.1365581,13.1646189 31.9516618,13.7419065 31.7353846,14.3076923 C31.5533069,14.8207981 31.326807,15.3170388 31.0584615,15.7907692 C30.9864215,15.7953566 30.915532,15.7709884 30.8615385,15.7230769 L30.3507692,15.4769231 C30.2769231,15.4769231 30.24,15.4769231 30.24,15.4092308 C30.571227,14.8672655 30.8533741,14.2967929 31.0830769,13.7046154 C31.2871592,13.1976039 31.4497445,12.6748613 31.5692308,12.1415385 C31.7518744,11.5255068 31.8957459,10.8986381 32,10.2646154 C32,10.2153846 32,10.1846154 32,10.1846154 Z M33.8461538,9.87692308 C33.9384615,9.87692308 33.9815385,9.92615385 33.9815385,10.0307692 L33.9815385,10.4615385 C33.9815385,10.56 33.9384615,10.6092308 33.8461538,10.6092308 L30.7692308,10.6092308 C30.6830769,10.6092308 30.64,10.56 30.64,10.4615385 L30.64,10.0307692 C30.64,9.92615385 30.6830769,9.87692308 30.7692308,9.87692308 L33.8461538,9.87692308 Z M31.6,13.5384615 L32.0307692,13.5384615 C32.1415385,13.5384615 32.2030769,13.5876923 32.2030769,13.6861538 L32.2030769,19.84 C32.2030769,19.9323077 32.1415385,19.9815385 32.0307692,19.9815385 L31.6,19.9815385 C31.4953846,19.9815385 31.44,19.9323077 31.44,19.84 L31.44,13.6861538 C31.44,13.5815385 31.4953846,13.5384615 31.6,13.5384615 Z M33.7107692,13.5384615 C33.7519952,13.5325699 33.7936387,13.5459794 33.8236808,13.5748197 C33.8537228,13.6036601 33.8688201,13.6447219 33.8646154,13.6861538 L33.8646154,18.6892308 C33.8646154,18.7876923 33.8092308,18.8369231 33.6923077,18.8369231 L33.2615385,18.8369231 C33.1569231,18.8369231 33.1015385,18.7876923 33.1015385,18.6892308 L33.1015385,14.2461538 L31.9569231,14.2461538 C31.8646154,14.2461538 31.8215385,14.1969231 31.8215385,14.1046154 L31.8215385,13.68 C31.8215385,13.5815385 31.8646154,13.5323077 31.9569231,13.5323077 L33.7107692,13.5384615 Z M33.3969231,17.5753846 C33.4830769,17.5753846 33.5323077,17.6246154 33.5323077,17.7230769 L33.5323077,18.1415385 C33.5323077,18.24 33.4830769,18.2892308 33.3969231,18.2892308 L31.9569231,18.2892308 C31.8646154,18.2892308 31.8215385,18.24 31.8215385,18.1415385 L31.8215385,17.7230769 C31.8215385,17.6246154 31.8646154,17.5753846 31.9569231,17.5753846 L33.3969231,17.5753846 Z M36.5846154,14.0738462 C36.6769231,14.1046154 36.72,14.1415385 36.72,14.1907692 C36.725843,14.2533086 36.6945529,14.3134819 36.64,14.3446154 C36.529868,14.3631316 36.4507368,14.4607267 36.4553846,14.5723077 C36.48033,15.505251 36.4185258,16.4384939 36.2707692,17.36 C36.1240793,17.9626712 35.8697401,18.5338919 35.52,19.0461538 C35.2542825,19.3990664 34.9392741,19.7120024 34.5846154,19.9753846 L34.4615385,19.9753846 C34.24,19.9076923 34.0307692,19.8338462 33.8461538,19.7538462 C33.8071015,19.725603 33.7860079,19.6787285 33.7907692,19.6307692 C34.201556,19.3994807 34.5682231,19.097397 34.8738462,18.7384615 C35.1651391,18.3772608 35.3750459,17.9574471 35.4892308,17.5076923 C35.711802,16.6421383 35.803077,15.7480582 35.76,14.8553846 C35.76,14.7138462 35.76,14.4615385 35.7292308,14.0923077 C35.7292308,14.0184615 35.7784615,13.9876923 35.8646154,13.9876923 L36.5846154,14.0738462 Z M35.0769231,12.7507692 L35.7230769,13.0215385 C35.8276923,13.0646154 35.8769231,13.1138462 35.8769231,13.1753846 C35.8837938,13.2478525 35.8443836,13.3168204 35.7784615,13.3476923 C35.68,13.3476923 35.6246154,13.4092308 35.6061538,13.5261538 C35.4167059,14.2376329 35.161238,14.9298683 34.8430769,15.5938462 C34.785641,15.6923077 34.7425641,15.7415385 34.7138462,15.7415385 C34.6519145,15.7369261 34.5923802,15.7156639 34.5415385,15.68 L34.1353846,15.4830769 C34.0738462,15.4830769 34.0492308,15.4461538 34.0492308,15.4338462 C34.0555273,15.3980585 34.0702977,15.3642976 34.0923077,15.3353846 C34.2888646,14.966495 34.4635259,14.5863497 34.6153846,14.1969231 C34.7793096,13.799517 34.9050055,13.3873992 34.9907692,12.9661538 C35.0215385,12.8184615 35.0769231,12.7507692 35.0769231,12.7507692 Z M37.3846154,16.0738462 C37.4707692,16.0738462 37.5138462,16.1230769 37.5138462,16.2153846 L37.5138462,16.6153846 C37.5138462,16.7076923 37.4707692,16.7507692 37.3846154,16.7507692 L34.4615385,16.7507692 C34.3815385,16.7507692 34.3384615,16.7076923 34.3384615,16.6153846 L34.3384615,16.2276923 C34.3384615,16.1353846 34.3815385,16.0861538 34.4615385,16.0861538 L37.3846154,16.0738462 Z M35.3538462,9.18153846 C35.3538462,9.22461538 35.3107692,9.28615385 35.2184615,9.35384615 L35.2184615,11.6307692 C35.2120631,11.6715687 35.2255497,11.712969 35.2547519,11.7421712 C35.2839541,11.7713734 35.3253544,11.7848599 35.3661538,11.7784615 L36.6953846,11.7784615 C36.8553846,11.7784615 37.0030769,11.5138462 37.1384615,10.9969231 L37.7969231,11.4092308 C37.5569231,12.1107692 37.2553846,12.4676923 36.8923077,12.4676923 L35.0769231,12.4676923 C34.6892308,12.4676923 34.4984615,12.3015385 34.4984615,11.9753846 L34.4984615,9.13230769 C34.4984615,9.04615385 34.5292308,9.00307692 34.5907692,9.00307692 C35.1076923,9.04615385 35.36,9.10769231 35.36,9.18153846 L35.3538462,9.18153846 Z M37.0276923,9.52 C37.0646154,9.52 37.1076923,9.55692308 37.1507692,9.61846154 C37.3159439,9.81334267 37.4680697,10.0189181 37.6061538,10.2338462 C37.6061538,10.3076923 37.6061538,10.3446154 37.52,10.3446154 L37.2615385,10.3015385 L37.2307692,10.3015385 C37.0666667,10.4123077 36.8820513,10.5230769 36.6769231,10.6338462 C36.4168764,10.7511152 36.149677,10.8518288 35.8769231,10.9353846 C35.5860297,11.0446507 35.2850936,11.1250377 34.9784615,11.1753846 L34.7569231,10.5292308 C35.0938133,10.4598606 35.425005,10.3652344 35.7476923,10.2461538 C36.018012,10.1544443 36.2762865,10.0304725 36.5169231,9.87692308 C36.6953909,9.77992543 36.8573927,9.65530869 36.9969231,9.50769231 L37.0276923,9.52 Z M37.3415385,13.8276923 C37.4215385,13.8276923 37.4646154,13.8707692 37.4646154,13.9630769 L37.4646154,14.3507692 C37.4646154,14.4430769 37.4215385,14.4923077 37.3415385,14.4923077 L35.1261538,14.4923077 C35.04,14.4923077 35.0030769,14.4430769 35.0030769,14.3507692 L35.0030769,13.9630769 C35.0030769,13.8707692 35.04,13.8276923 35.1261538,13.8276923 L37.3415385,13.8276923 Z M36.7261538,17.3353846 C36.8767003,17.6572908 37.0668925,17.9591175 37.2923077,18.2338462 C37.3212004,18.2504616 37.3397261,18.2805659 37.3415385,18.3138462 C37.3415385,18.3138462 37.3415385,18.3692308 37.2615385,18.4123077 C37.1589464,18.5405801 37.0457251,18.6599771 36.9230769,18.7692308 C36.8738462,18.8307692 36.8307692,18.8553846 36.7938462,18.8553846 C36.7628444,18.8511825 36.7344195,18.8358768 36.7138462,18.8123077 C36.5162644,18.5313674 36.3491681,18.2301814 36.2153846,17.9138462 C36.0560945,17.5118685 35.9204778,17.1009088 35.8092308,16.6830769 L36.3692308,16.3569231 C36.4605486,16.6969113 36.5757055,17.0300436 36.7138462,17.3538462 L36.7261538,17.3353846 Z M37.9569231,14.7261538 L38.9784615,14.8430769 C38.9809858,14.8952575 38.951845,14.9438256 38.9046154,14.9661538 C38.8061538,15.0215385 38.7507692,15.0830769 38.7507692,15.1569231 C38.7507692,15.8092308 38.7507692,16.3015385 38.7015385,16.6461538 C38.680112,16.9843659 38.6410847,17.3212324 38.5846154,17.6553846 C38.5338818,17.9554941 38.461906,18.2516231 38.3692308,18.5415385 C38.2996129,18.7973626 38.2026434,19.0449442 38.08,19.28 C37.8963577,19.5928831 37.6752378,19.8821989 37.4215385,20.1415385 C37.3723077,20.1415385 37.3292308,20.0984615 37.2984615,20.0246154 C37.1825808,19.9038197 37.057036,19.7926816 36.9230769,19.6923077 C36.8716869,19.6594398 36.8377942,19.6052115 36.8307692,19.5446154 C36.9181222,19.4746582 37.0003816,19.3985683 37.0769231,19.3169231 C37.1845887,19.2030936 37.2814172,19.0794828 37.3661538,18.9476923 C37.4663494,18.7954849 37.5489301,18.6323879 37.6123077,18.4615385 C37.6985858,18.2365739 37.7705248,18.0063693 37.8276923,17.7723077 C37.8921865,17.5190649 37.941505,17.2621977 37.9753846,17.0030769 C38.0123077,16.6953846 38.0369231,16.3938462 38.0492308,16.0984615 C38.0552668,15.6531117 38.0202469,15.2081531 37.9446154,14.7692308 L37.9569231,14.7261538 Z M41.4707692,13.04 L41.28,13.7538462 L37.84,13.7538462 C37.7538462,13.7538462 37.7046154,13.7046154 37.7046154,13.6061538 L37.7046154,13.1876923 C37.7046154,13.0892308 37.7538462,13.04 37.84,13.04 L41.4707692,13.04 Z M38.4369231,16.4861538 C38.5476923,16.4861538 38.6030769,16.5292308 38.6092308,16.6153846 C38.6263945,16.9927145 38.6654345,17.3687308 38.7261538,17.7415385 C38.7502135,17.9860213 38.7997122,18.2273273 38.8738462,18.4615385 C38.9127527,18.6069961 38.9728861,18.7459249 39.0523077,18.8738462 C39.1136521,18.9763802 39.2005982,19.0612056 39.3046154,19.12 C39.3822221,19.1730928 39.4703899,19.2087798 39.5630769,19.2246154 C39.8657907,19.2531599 40.1698151,19.2654852 40.4738462,19.2615385 C40.8707899,19.2390942 41.2645201,19.1772518 41.6492308,19.0769231 C41.6397514,19.1290702 41.6209927,19.1790935 41.5938462,19.2246154 C41.515299,19.4253876 41.4495267,19.6309259 41.3969231,19.84 C41.3737471,19.9136688 41.3012572,19.9602694 41.2246154,19.9507692 C40.977727,20.0010422 40.7254391,20.0196536 40.4738462,20.0061538 C40.0058596,20.018858 39.5377973,19.9838049 39.0769231,19.9015385 C38.9290179,19.8477779 38.7975666,19.75661 38.6953846,19.6369231 C38.5455123,19.4695468 38.4285923,19.2753762 38.3507692,19.0646154 C38.249966,18.8114943 38.1717133,18.5499656 38.1169231,18.2830769 C38.0019344,17.7341228 37.9360334,17.1760235 37.92,16.6153846 C37.92,16.5292308 37.9630769,16.4861538 38.0615385,16.4861538 L38.4246154,16.4861538 L38.4369231,16.4861538 Z M39.5076923,11.4215385 C39.8766867,11.5937797 40.2289567,11.7997856 40.56,12.0369231 C40.7809466,12.1755382 40.9871464,12.3363741 41.1753846,12.5169231 C41.1793232,12.531012 41.1793232,12.5459111 41.1753846,12.56 C41.1753846,12.6092308 40.9969231,12.7384615 40.6523077,12.96 C40.6279816,12.9653367 40.6027877,12.9653367 40.5784615,12.96 C40.304042,12.7233531 40.0048722,12.517029 39.6861538,12.3446154 C39.4953846,12.2276923 39.2923077,12.1230769 39.0707692,12.0184615 C38.8492308,11.9138462 38.4923077,11.7784615 38.1661538,11.6553846 C38.1415385,11.6553846 38.1292308,11.6430769 38.1292308,11.6184615 C38.243646,11.4581443 38.3690771,11.305982 38.5046154,11.1630769 C38.5499773,11.1267372 38.6064947,11.1071735 38.6646154,11.1076822 C38.9474901,11.2029604 39.2248422,11.3139013 39.4953846,11.44 L39.5076923,11.4215385 Z M40.9661538,9.36 C41.0647632,9.35177455 41.1597224,9.39925414 41.2123077,9.48307692 L41.0892308,10.0246154 L38.5661538,10.0246154 C38.5298313,10.0306918 38.4927686,10.0193002 38.4661294,9.9938718 C38.4394901,9.96844342 38.4263879,9.9319504 38.4307692,9.89538462 L38.4307692,9.49538462 C38.4268435,9.45841379 38.4398403,9.42164965 38.4661296,9.39536036 C38.4924189,9.36907107 38.529183,9.35607429 38.5661538,9.36 L40.9661538,9.36 Z M39.2738462,13.4153846 L40.0369231,13.4153846 L40.0369231,19.4461538 C40.0369231,19.5384615 39.9815385,19.5876923 39.8707692,19.5876923 L39.4276923,19.5876923 C39.3292308,19.5876923 39.2738462,19.5384615 39.2738462,19.4461538 L39.2738462,13.4153846 Z M41.2307692,9.50769231 C41.3961954,9.66507099 41.5353889,9.8478923 41.6430769,10.0492308 C40.9169231,11.1261538 40.4615385,11.8215385 40.2769231,12.1292308 C40.2461538,12.1969231 40.2153846,12.2276923 40.1846154,12.2276923 C40.114931,12.2233427 40.0482971,12.1975489 39.9938462,12.1538462 L39.5876923,11.7969231 C39.5319139,11.7825519 39.493563,11.7314174 39.4953846,11.6738462 L41.2307692,9.50769231 Z M41.1261538,16 C41.2184615,16 41.2676923,16.0553846 41.2676923,16.16 L41.2676923,16.6153846 C41.2676923,16.72 41.2184615,16.7753846 41.1261538,16.7753846 L39.7969231,16.7753846 C39.7046154,16.7753846 39.6553846,16.72 39.6553846,16.6153846 L39.6553846,16.1846154 C39.6553846,16.08 39.7046154,16.0246154 39.7969231,16.0246154 L41.1261538,16 Z M41.2676923,13.0338462 L41.4707692,13.0338462 C41.5342945,13.0276584 41.5978628,13.0451944 41.6492308,13.0830769 C41.7723077,13.214359 41.8338462,13.3128205 41.8338462,13.3784615 L41.0953846,15.0953846 C41.0953846,15.1323077 41.0769231,15.1507692 41.04,15.1507692 C40.6523077,15.04 40.4615385,14.9476923 40.4615385,14.8676923 L41.2676923,13.0338462 Z" id="Shape" fill="#FFFFFF" fill-rule="nonzero"></path>
            <path d="M44.7569231,11.9938462 L45.4830769,12.2646154 C45.3353846,13.0461538 45.1876923,13.7476923 45.04,14.3815385 C44.8816697,14.968183 44.6906011,15.5454976 44.4676923,16.1107692 C44.2794792,16.6244147 44.0468018,17.120656 43.7723077,17.5938462 C43.698191,17.6001335 43.6247517,17.5756537 43.5692308,17.5261538 C43.4030769,17.4523077 43.2307692,17.3661538 43.0646154,17.28 C42.8984615,17.1938462 42.9538462,17.28 42.9538462,17.2123077 C43.2931013,16.6719561 43.5815156,16.1013077 43.8153846,15.5076923 C44.0246633,15.0019867 44.1893913,14.4789753 44.3076923,13.9446154 C44.4755839,13.327219 44.6070921,12.7005002 44.7015385,12.0676923 C44.7138462,12.0184615 44.7261538,11.9938462 44.7569231,11.9938462 Z M46.7692308,11.6123077 C46.8676923,11.6123077 46.9107692,11.6676923 46.9107692,11.7723077 L46.9107692,12.2153846 C46.9107692,12.32 46.8676923,12.3692308 46.7692308,12.3692308 L43.3784615,12.3692308 C43.2861538,12.3692308 43.2369231,12.32 43.2369231,12.2153846 L43.2369231,11.7723077 C43.2369231,11.6676923 43.2861538,11.6123077 43.3784615,11.6123077 L46.7692308,11.6123077 Z M45.9138462,9.23076923 C45.9138462,9.33538462 45.8707692,9.39692308 45.7846154,9.40307692 C45.6984615,9.40923077 45.6615385,9.49538462 45.6615385,9.64307692 L45.6615385,19.9507692 C45.6615385,20.0553846 45.6,20.1107692 45.4707692,20.1107692 L44.9784615,20.1107692 C44.8615385,20.1107692 44.8061538,20.0553846 44.8061538,19.9507692 L44.8061538,9.23076923 C44.8061538,9.13230769 44.8615385,9.08307692 44.9784615,9.08307692 C45.6061538,9.09538462 45.9138462,9.15076923 45.9138462,9.23076923 Z M46.2646154,13.6246154 C46.4822304,14.1601008 46.7654174,14.6665301 47.1076923,15.1323077 C47.1522558,15.1632873 47.1796186,15.2134525 47.1815385,15.2676923 C47.1815385,15.2676923 47.1815385,15.3292308 47.1015385,15.3661538 C47.0005529,15.4958169 46.887199,15.6153537 46.7630769,15.7230769 C46.7138462,15.7846154 46.6707692,15.8153846 46.6338462,15.8153846 C46.5852046,15.8067148 46.5426251,15.7775814 46.5169231,15.7353846 C46.2197288,15.2833213 45.972144,14.800531 45.7784615,14.2953846 C45.5367997,13.6384239 45.3313627,12.9686995 45.1630769,12.2892308 L45.7169231,11.9692308 C45.8667147,12.5393894 46.0495885,13.1003393 46.2646154,13.6492308 L46.2646154,13.6246154 Z M48.4246154,17.3784615 L49.0769231,17.8646154 C49.1446154,17.9323077 49.1753846,17.9815385 49.1753846,18.0184615 C49.1753846,18.0553846 49.1753846,18.0676923 49.0892308,18.08 C49.0241585,18.0834894 48.9617861,18.1071479 48.9107692,18.1476923 C48.707281,18.3960562 48.487296,18.6304327 48.2523077,18.8492308 C47.9275461,19.1205182 47.5771803,19.3595913 47.2061538,19.5630769 C47.1297498,19.5737077 47.0544628,19.5372785 47.0153846,19.4707692 C46.8553846,19.3415385 46.72,19.2246154 46.6092308,19.1261538 C46.4984615,19.0276923 46.5169231,19.0707692 46.5169231,19.04 C46.5197406,19.0167238 46.533444,18.9961686 46.5538462,18.9846154 C46.7326371,18.9263241 46.9024649,18.8434813 47.0584615,18.7384615 C47.3231627,18.5616622 47.5667943,18.3551947 47.7846154,18.1230769 C47.9913464,17.9015168 48.1864789,17.6694119 48.3692308,17.4276923 C48.3876923,17.4276923 48.4061538,17.4030769 48.4246154,17.4030769 L48.4246154,17.3784615 Z M53.8830769,16.0738462 C53.9692308,16.0738462 54.0184615,16.1230769 54.0184615,16.2215385 L54.0184615,16.64 C54.0184615,16.7384615 53.9692308,16.7876923 53.8830769,16.7876923 L47.1138462,16.7876923 C47.0215385,16.7876923 46.9784615,16.7384615 46.9784615,16.64 L46.9784615,16.2461538 C46.9784615,16.1476923 47.0215385,16.0984615 47.1138462,16.0984615 L53.8830769,16.0738462 Z M53.9323077,9.52 C54.0184615,9.52 54.0615385,9.56923077 54.0615385,9.66769231 L54.0615385,10.0861538 C54.0615385,10.1846154 54.0184615,10.2338462 53.9323077,10.2338462 L47.2184615,10.2338462 C47.1261538,10.2338462 47.0830769,10.1846154 47.0830769,10.0861538 L47.0830769,9.66769231 C47.0830769,9.56923077 47.1261538,9.52 47.2184615,9.52 L53.9323077,9.52 Z M47.3846154,11.2061538 L53.5384615,11.2061538 L52.8615385,11.92 L48.1292308,11.92 L48.1292308,13.1076923 L47.4461538,13.8215385 C47.3292308,13.8215385 47.2738462,13.7661538 47.2738462,13.6615385 L47.2738462,11.3661538 C47.2738462,11.2615385 47.3230769,11.2061538 47.3846154,11.2061538 Z M52.8553846,11.92 L53.5384615,11.2061538 C53.6553846,11.2061538 53.7107692,11.2615385 53.7107692,11.3661538 L53.7107692,13.6615385 C53.7107692,13.7661538 53.6615385,13.8215385 53.5692308,13.8215385 L47.4153846,13.8215385 L48.0984615,13.1076923 L52.8492308,13.1076923 L52.8553846,11.92 Z M53.1015385,14.6276923 C53.1876923,14.6276923 53.2307692,14.6769231 53.2307692,14.7753846 L53.2307692,15.1876923 C53.2307692,15.2923077 53.1876923,15.3415385 53.1015385,15.3415385 L47.9323077,15.3415385 C47.84,15.3415385 47.7969231,15.2923077 47.7969231,15.1876923 L47.7969231,14.7692308 C47.7969231,14.6707692 47.84,14.6215385 47.9323077,14.6215385 L53.1015385,14.6276923 Z M50.0984615,16.4738462 L50.9538462,16.4738462 L50.9538462,19.1630769 C50.9538462,19.7784615 50.4615385,20.08 49.4830769,20.08 L48.9846154,20.08 C48.9230769,20.08 48.8923077,20.0123077 48.8923077,19.8707692 C48.8609879,19.6517953 48.7833669,19.4420088 48.6646154,19.2553846 C48.6646154,19.2061538 48.6769231,19.1815385 48.7015385,19.1815385 C48.9432439,19.2410346 49.1910864,19.2720149 49.44,19.2738462 C49.8953846,19.2738462 50.1230769,19.1261538 50.1230769,18.8307692 L50.0984615,16.4738462 Z M49.1015385,9.90153846 L49.9076923,9.90153846 L49.9076923,13.3107692 C49.9076923,13.4153846 49.8523077,13.4646154 49.7353846,13.4646154 L49.2676923,13.4646154 C49.1569231,13.4646154 49.1015385,13.4153846 49.1015385,13.3107692 L49.1015385,9.90153846 Z M51.0030769,9.90153846 L51.8092308,9.90153846 L51.8092308,13.3107692 C51.8092308,13.4153846 51.7476923,13.4646154 51.6307692,13.4646154 L51.1630769,13.4646154 C51.0584615,13.4646154 51.0030769,13.4153846 51.0030769,13.3107692 L51.0030769,9.90153846 Z M53.3353846,18.2092308 C53.6348718,18.5169231 53.8933333,18.7938462 54.1107692,19.04 C54.1007091,19.0800499 54.079348,19.1163638 54.0492308,19.1446154 C53.9372832,19.3199764 53.8095747,19.4847616 53.6676923,19.6369231 C53.3440263,19.2466917 52.9923237,18.8805919 52.6153846,18.5415385 C52.3771933,18.3337863 52.1219327,18.146458 51.8523077,17.9815385 C51.9572686,17.801361 52.0855564,17.6358284 52.2338462,17.4892308 C52.2769231,17.4338462 52.3076923,17.4030769 52.3323077,17.4030769 C52.684859,17.6483391 53.0200183,17.9177003 53.3353846,18.2092308 L53.3353846,18.2092308 Z" id="Shape" fill="#FFFFFF" fill-rule="nonzero"></path>
            <path d="M66.3938462,18 C66.48,18 66.5292308,18.0492308 66.5292308,18.1476923 L66.5292308,18.56 C66.5292308,18.6584615 66.48,18.7076923 66.3938462,18.7076923 L56.1661538,18.7076923 C56.08,18.7076923 56.0369231,18.6584615 56.0369231,18.56 L56.0369231,18.1476923 C56.0369231,18.0492308 56.08,18 56.1661538,18 L66.3938462,18 Z M66.3938462,11.92 C66.48,11.92 66.5292308,11.9692308 66.5292308,12.0676923 L66.5292308,12.4861538 C66.5292308,12.5846154 66.48,12.6338462 66.3938462,12.6338462 L56.2153846,12.6338462 C56.1292308,12.6338462 56.08,12.5846154 56.08,12.4861538 L56.08,12.0676923 C56.08,11.9692308 56.1292308,11.92 56.2153846,11.92 L66.3938462,11.92 Z M65.5876923,9.84615385 C65.6738462,9.84615385 65.7230769,9.89538462 65.7230769,9.99384615 L65.7230769,10.4061538 C65.7230769,10.5046154 65.6738462,10.5538462 65.5876923,10.5538462 L57.0215385,10.5538462 C56.9353846,10.5538462 56.8861538,10.5046154 56.8861538,10.4061538 L56.8861538,9.99384615 C56.8861538,9.89538462 56.9353846,9.84615385 57.0215385,9.84615385 L65.5876923,9.84615385 Z M57.5323077,13.3907692 L65.0707692,13.3907692 L64.3876923,14.1046154 L58.2338462,14.1046154 L58.2338462,16.4307692 L57.5569231,17.1446154 C57.44,17.1446154 57.3846154,17.0892308 57.3846154,16.9846154 L57.3846154,13.5384615 C57.3846154,13.4568933 57.4507395,13.3907692 57.5323077,13.3907692 L57.5323077,13.3907692 Z M64.3876923,14.1046154 L65.0707692,13.3907692 C65.1876923,13.3907692 65.2430769,13.4461538 65.2430769,13.5507692 L65.2430769,16.9846154 C65.2430769,17.0892308 65.1876923,17.1446154 65.0646154,17.1446154 L57.5384615,17.1446154 L58.2153846,16.4307692 L64.3692308,16.4307692 L64.3876923,14.1046154 Z M64.6830769,14.9107692 C64.7753846,14.9107692 64.8184615,14.96 64.8184615,15.0584615 L64.8184615,15.4769231 C64.8184615,15.5753846 64.7753846,15.6246154 64.6830769,15.6246154 L57.9138462,15.6246154 C57.8215385,15.6246154 57.7784615,15.5753846 57.7784615,15.4769231 L57.7784615,15.0584615 C57.7784615,14.96 57.8215385,14.9107692 57.9138462,14.9107692 L64.6830769,14.9107692 Z M59.3723077,11.1507692 C59.5136019,11.3056692 59.6355235,11.477186 59.7353846,11.6615385 C59.4723266,11.7976682 59.1901433,11.8931125 58.8984615,11.9446154 C58.8363909,11.798595 58.7511964,11.6635305 58.6461538,11.5446154 C58.4773344,11.3425446 58.2875545,11.1589532 58.08,10.9969231 C58.08,10.9353846 58.3138462,10.7938462 58.7876923,10.5661538 C58.9962586,10.7468323 59.1916293,10.9422029 59.3723077,11.1507692 L59.3723077,11.1507692 Z M60.7815385,16.7876923 L61.6369231,16.7876923 L61.6369231,19.9507692 C61.6369231,20.0553846 61.5753846,20.1107692 61.4523077,20.1107692 L60.9538462,20.1107692 C60.8430769,20.1107692 60.7815385,20.0553846 60.7815385,19.9507692 L60.7815385,16.7876923 Z M61.9384615,9.11384615 C61.9384615,9.21846154 61.8953846,9.28 61.8092308,9.28615385 C61.7230769,9.29230769 61.6861538,9.37846154 61.6861538,9.52615385 L61.6861538,10.0307692 C61.6861538,10.1353846 61.6246154,10.1846154 61.4953846,10.1846154 L61.0030769,10.1846154 C60.8861538,10.1846154 60.8307692,10.1353846 60.8307692,10.0307692 L60.8307692,9.10153846 C60.8307692,9.00307692 60.8861538,8.95384615 61.0030769,8.95384615 C61.6246154,8.95384615 61.9384615,9.00923077 61.9384615,9.11384615 Z M63.6184615,10.5169231 L64.3569231,10.8246154 C64.4676923,10.8738462 64.5292308,10.9292308 64.5292308,10.9969231 C64.5292308,11.0646154 64.5292308,11.0584615 64.4369231,11.0707692 C64.3446154,11.0830769 64.3015385,11.0707692 64.2830769,11.1446154 C64.0922364,11.4498892 63.8626312,11.7291387 63.6,11.9753846 C63.5692758,12.0087507 63.5279753,12.0304878 63.4830769,12.0369231 C63.4133602,12.0286581 63.3462174,12.0055778 63.2861538,11.9692308 L62.8307692,11.7476923 C62.7630769,11.7476923 62.7261538,11.7046154 62.7261538,11.6861538 L62.7692308,11.6430769 C62.9318249,11.4911788 63.0820448,11.3265543 63.2184615,11.1507692 C63.3538939,10.9854986 63.4638294,10.8008898 63.5446154,10.6030769 C63.5692308,10.5476923 63.5938462,10.5169231 63.6184615,10.5169231 L63.6184615,10.5169231 Z" id="Shape" fill="#FFFFFF" fill-rule="nonzero"></path>
            <path d="M74.0184615,18.9846154 L68.2584615,18.9846154 C68.2896136,18.2720191 68.5807867,17.5955343 69.0769231,17.0830769 C69.5704975,16.5408382 70.1122004,16.0444488 70.6953846,15.6 C71.2320224,15.16809 71.7359626,14.6970602 72.2030769,14.1907692 C72.618599,13.775073 72.8661954,13.2207199 72.8984615,12.6338462 C72.9088592,12.2168839 72.7356132,11.8163931 72.4246154,11.5384615 C72.106783,11.2512413 71.6896638,11.0989597 71.2615385,11.1138462 C70.9428537,11.1118779 70.6290865,11.1924398 70.3507692,11.3476923 C69.8130696,11.6634979 69.5025374,12.2582864 69.5507692,12.88 L68.4615385,12.7507692 C68.4845126,12.4072693 68.5656669,12.0701671 68.7015385,11.7538462 C69.1421422,10.7401636 70.1861089,10.1262117 71.2861538,10.2338462 C72.0692843,10.1866062 72.8345384,10.4805894 73.3846154,11.04 C73.7887333,11.4812075 74.008889,12.0602171 74,12.6584615 C74.0001684,13.1438027 73.8636785,13.6193848 73.6061538,14.0307692 C73.1229205,14.7362468 72.540522,15.3683875 71.8769231,15.9076923 L70.9969231,16.6461538 C70.5165392,17.0090745 70.1004995,17.4500766 69.7661538,17.9507692 L74.0738462,17.9507692 L74.0184615,18.9846154 Z" id="Path" fill="#FFFFFF" fill-rule="nonzero"></path>
            <polygon id="Path" fill="#FFFFFF" fill-rule="nonzero" points="77.28 18.9846154 76.0492308 18.9846154 76.0492308 17.7538462 77.28 17.7538462"></polygon>
            <path d="M84.9846154,14.6892308 C84.9846154,17.6430769 84.0430769,19.1261538 82.16,19.1261538 C80.2769231,19.1261538 79.3230769,17.6430769 79.3230769,14.6892308 C79.3230769,11.7353846 80.2707692,10.2338462 82.16,10.2338462 C84.0492308,10.2338462 84.9846154,11.6923077 84.9846154,14.6892308 Z M83.8892308,14.6892308 C83.9203653,13.8963805 83.8290354,13.103471 83.6184615,12.3384615 C83.4815418,11.6316664 82.8675553,11.1178702 82.1476923,11.1076923 C80.9907692,11.1076923 80.4123077,12.2953846 80.4123077,14.6830769 C80.4123077,17.0707692 81.0276923,18.24 82.16,18.24 C83.2923077,18.24 83.8892308,17.0584615 83.8892308,14.6892308 Z" id="Shape" fill="#FFFFFF" fill-rule="nonzero"></path>
            <path d="M10.0984615,24.6707692 C9.93199152,24.769727 9.77894098,24.8896855 9.64307692,25.0276923 C9.49773624,25.1881406 9.38674427,25.3766176 9.31692308,25.5815385 C9.22679726,25.7738996 9.18255911,25.9845575 9.18769231,26.1969231 C9.19022684,26.630614 9.34238528,27.0501365 9.61846154,27.3846154 C9.86118893,27.6836323 10.2241318,27.859468 10.6092308,27.864623 C10.7560129,27.8651245 10.9017683,27.8401378 11.04,27.7907692 C11.2400774,27.6495331 11.4256065,27.4887412 11.5938462,27.3107692 C11.83959,27.0311637 11.9675087,26.667257 11.9507692,26.2953846 C11.9525064,25.8683647 11.7994734,25.4551756 11.52,25.1323077 C11.296644,24.8182363 10.9390677,24.6269215 10.5538462,24.6153846 C10.4001062,24.6103146 10.2465043,24.6289959 10.0984615,24.6707692 Z M14.2276923,24.5476923 C15.2148548,26.1628138 15.732664,28.0209607 15.7230769,29.9138462 C15.7289815,30.7200842 15.6149125,31.5227153 15.3846154,32.2953846 C15.1731675,32.9669015 14.7989909,33.5757312 14.2953846,34.0676923 L13.3661538,34.0676923 C13.4338462,33.8646154 13.4953846,33.6676923 13.5446154,33.4523077 C13.5938462,33.2369231 13.5446154,33.0030769 13.5446154,32.7692308 C13.5499693,31.8287585 13.2473897,30.9123747 12.6830769,30.16 C12.2382423,29.4653546 11.4826158,29.0312713 10.6584615,28.9969231 C9.82364886,29.0383903 9.06134037,29.4838356 8.61538462,30.1907692 C8.04778327,30.9414227 7.74482536,31.8589524 7.75384615,32.8 C7.76079158,33.2337431 7.84411701,33.6628691 8,34.0676923 L7.03384615,34.0676923 C6.53537095,33.5770801 6.17095635,32.9668975 5.97538462,32.2953846 C5.71452326,31.5203181 5.58555348,30.7069764 5.59384615,29.8892308 C5.59017967,27.9952085 6.10750716,26.1366615 7.08923077,24.5169231 C8.08615385,22.88 9.28,22.0553846 10.6830769,22.0553846 C12.0861538,22.0553846 13.2307692,22.8923077 14.2276923,24.5476923 Z" id="Shape" fill="#FFCC00"></path>
            <path d="M26.6892308,32.3938462 C25.9605058,32.4235593 25.2572878,32.1228262 24.7753846,31.5753846 C24.3403166,31.0842734 24.1072668,30.4466842 24.1230769,29.7907692 C24.1021257,29.1131932 24.369439,28.4585042 24.8586549,27.9892323 C25.3478708,27.5199605 26.0131128,27.2801121 26.6892308,27.3292308 L29.5384615,27.3292308 L29.5384615,28.1846154 L26.6892308,28.1846154 C26.2271162,28.1702084 25.780316,28.3511625 25.4584615,28.6830769 C25.1807168,28.9859752 25.0231545,29.379881 25.0153846,29.7907692 C24.9875041,30.2190452 25.1289389,30.6411398 25.4092308,30.9661538 C25.7354851,31.3334451 26.2109053,31.5326687 26.7015385,31.5076923 L29.5384615,31.5076923 L29.5384615,32.3938462 L26.6892308,32.3938462 Z" id="Path" fill="#FFFFFF" fill-rule="nonzero"></path>
            <path d="M32.8615385,32.3938462 C32.1339496,32.4174465 31.4332306,32.1177821 30.9476923,31.5753846 C30.515262,31.0827047 30.2826021,30.4461822 30.2953846,29.7907692 C30.2730979,29.1607763 30.493361,28.5462423 30.9107692,28.0738462 C31.4098851,27.5405919 32.1200405,27.2565298 32.8492308,27.2984615 L35.7230769,27.2984615 L35.7230769,28.1846154 L32.8615385,28.1846154 C32.3990087,28.1678683 31.9512934,28.349193 31.6307692,28.6830769 C31.3487985,28.9837947 31.1886851,29.378595 31.1815385,29.7907692 C31.1560139,30.2198001 31.2996106,30.6417533 31.5815385,30.9661538 C31.9042494,31.3347326 32.3785321,31.5344306 32.8676923,31.5076923 L35.7415385,31.5076923 L35.7415385,32.3938462 L32.8615385,32.3938462 Z" id="Path" fill="#FFFFFF" fill-rule="nonzero"></path>
            <path d="M37.4707692,31.5076923 L40.9907692,31.5076923 L40.9907692,32.3938462 L36.5846154,32.3938462 L36.5846154,27.2984615 L40.9907692,27.2984615 L40.9907692,28.1846154 L37.4707692,28.1846154 L37.4707692,31.5076923 Z M40.7630769,29.3661538 L40.7630769,30.2523077 L37.8461538,30.2523077 L37.8461538,29.3661538 L40.7630769,29.3661538 Z" id="Shape" fill="#FFFFFF" fill-rule="nonzero"></path>
            <path d="M45.6923077,32.3938462 L41.8030769,32.3938462 L41.8030769,31.5076923 L45.6923077,31.5076923 C45.9450499,31.5195576 46.1937557,31.4410189 46.3938462,31.2861538 C46.5447674,31.1699738 46.6333884,30.9904595 46.6338462,30.8 C46.6329829,30.6127557 46.5469153,30.4360907 46.4,30.32 C46.1951767,30.1709609 45.9452455,30.0970682 45.6923077,30.1107692 L43.28,30.1107692 C42.8380008,30.1338778 42.4060557,29.9735682 42.0861538,29.6676923 C41.5624264,29.130052 41.5624264,28.2730249 42.0861538,27.7353846 C42.4070749,27.4317491 42.8388965,27.2737113 43.28,27.2984615 L47.1261538,27.2984615 L47.1261538,28.1846154 L43.28,28.1846154 C43.1157047,28.1737331 42.9539007,28.2291454 42.8307692,28.3384615 C42.7291575,28.4344587 42.6713301,28.5679064 42.6707692,28.7076923 C42.6672557,28.840416 42.7210697,28.9682243 42.8184615,29.0584615 C42.9426304,29.1754195 43.1097749,29.2355914 43.28,29.2246154 L45.6923077,29.2246154 C46.1775546,29.2022434 46.6502211,29.3828376 46.9969231,29.7230769 C47.2834528,30.0149116 47.4408604,30.4095391 47.4338462,30.8184615 C47.4455475,31.2234062 47.289702,31.6152463 47.0030769,31.9015385 C46.6522436,32.2385915 46.1782817,32.4166054 45.6923077,32.3938462 Z" id="Path" fill="#FFFFFF" fill-rule="nonzero"></path>
            <path d="M51.9138462,32.3938462 L48.0307692,32.3938462 L48.0307692,31.5076923 L51.9138462,31.5076923 C52.1668735,31.5217854 52.4163402,31.4430064 52.6153846,31.2861538 C52.7663058,31.1699738 52.8549268,30.9904595 52.8553846,30.8 C52.8545214,30.6127557 52.7684538,30.4360907 52.6215385,30.32 C52.4176454,30.1690848 52.1670234,30.0949879 51.9138462,30.1107692 L49.5015385,30.1107692 C49.0614095,30.1336365 48.6314577,29.97324 48.3138462,29.6676923 C48.0575587,29.4114776 47.9135717,29.0639322 47.9135717,28.7015385 C47.9135717,28.3391447 48.0575587,27.9915993 48.3138462,27.7353846 C48.6320836,27.4314391 49.0621977,27.2732106 49.5015385,27.2984615 L53.3538462,27.2984615 L53.3538462,28.1846154 L49.5015385,28.1846154 C49.339328,28.1753967 49.1800539,28.2307002 49.0584615,28.3384615 C48.9526862,28.4320134 48.8921753,28.566482 48.8923077,28.7076923 C48.8887942,28.840416 48.9426082,28.9682243 49.04,29.0584615 C49.1641689,29.1754195 49.3313133,29.2355914 49.5015385,29.2246154 L51.9138462,29.2246154 C52.399093,29.2022434 52.8717596,29.3828376 53.2184615,29.7230769 C53.5096494,30.0123069 53.6697552,30.4081241 53.6615385,30.8184615 C53.670887,31.2241829 53.5128749,31.6158748 53.2246154,31.9015385 C52.8749849,32.2404953 52.4001681,32.4188303 51.9138462,32.3938462 Z" id="Path" fill="#FFFFFF" fill-rule="nonzero"></path>
            <polygon id="Path" fill="#FFFFFF" fill-rule="nonzero" points="54.5661538 32.3938462 54.5661538 27.2984615 55.4523077 27.2984615 55.4523077 32.3938462"></polygon>
            <path d="M61.8338462,29.8707692 C62.1614304,30.1106925 62.3550087,30.492414 62.3550087,30.8984615 C62.3550087,31.3045091 62.1614304,31.6862306 61.8338462,31.9261538 C61.3949033,32.2540324 60.8547699,32.4173792 60.3076923,32.3876923 L56.6830769,32.3876923 L56.6830769,27.2861538 L60.3384615,27.2861538 C60.8884935,27.2562797 61.430707,27.4268146 61.8646154,27.7661538 C62.1863645,28.0147009 62.373122,28.3996038 62.3692308,28.8061538 C62.3697274,29.2258555 62.1710632,29.6209005 61.8338462,29.8707692 Z M60.48,31.5015385 C60.7526866,31.5146795 61.0235556,31.4506947 61.2615385,31.3169231 C61.4110068,31.2351099 61.5067325,31.0810148 61.5138462,30.9107692 C61.5067202,30.738844 61.4081107,30.583886 61.2553846,30.5046154 C61.0205891,30.3679253 60.751414,30.3016997 60.48,30.3138462 L58.0923077,30.3138462 L58.0923077,29.4276923 L60.48,29.4276923 C60.7526284,29.4440434 61.0235963,29.3752261 61.2553846,29.2307692 C61.4102092,29.141511 61.5079475,28.9786137 61.5138462,28.8 C61.5079422,28.6213755 61.4132961,28.4574761 61.2615385,28.3630769 C61.0241867,28.2271627 60.7532791,28.1610357 60.48,28.1723077 L57.5753846,28.1723077 L57.5753846,31.5015385 L60.48,31.5015385 Z" id="Shape" fill="#FFFFFF" fill-rule="nonzero"></path>
            <polygon id="Path" fill="#FFFFFF" fill-rule="nonzero" points="63.44 32.3938462 63.44 27.2984615 64.3323077 27.2984615 64.3323077 32.3938462"></polygon>
            <polygon id="Path" fill="#FFFFFF" fill-rule="nonzero" points="65.2984615 32.3938462 65.2984615 27.2984615 66.1846154 27.2984615 66.1846154 31.5076923 69.6984615 31.5076923 69.6984615 32.3938462"></polygon>
            <polygon id="Path" fill="#FFFFFF" fill-rule="nonzero" points="70.5046154 32.3938462 70.5046154 27.2984615 71.3846154 27.2984615 71.3846154 32.3938462"></polygon>
            <polygon id="Path" fill="#FFFFFF" fill-rule="nonzero" points="75.1753846 28.1846154 75.1753846 32.3938462 74.2892308 32.3938462 74.2892308 28.1846154 72.2769231 28.1846154 72.2769231 27.2984615 77.2 27.2984615 77.2 28.1846154"></polygon>
            <polygon id="Path" fill="#FFFFFF" fill-rule="nonzero" points="80.8307692 32.3938462 79.9446154 32.3938462 79.9446154 30.6892308 77.3476923 27.2984615 78.4861538 27.2984615 80.4123077 29.8153846 82.2153846 27.2984615 83.3538462 27.2984615 80.8307692 30.7076923"></polygon>
            <path d="M13.698392,29.8892308 C13.6954583,27.9961337 14.2104608,26.1382941 15.1876923,24.5169231 C16.1846154,22.8758974 17.3846154,22.0553846 18.7876923,22.0553846 C20.1907692,22.0553846 21.3723077,22.8758974 22.3323077,24.5169231 C23.3194702,26.1320446 23.8372794,27.9901915 23.8276923,29.8830769 C23.8355938,30.689007 23.7235996,31.4916318 23.4953846,32.2646154 C23.2839367,32.9361322 22.9097602,33.5449619 22.4061538,34.0369231 L21.4707692,34.0369231 C21.5384615,33.8338462 21.5938462,33.6369231 21.6492308,33.4215385 C21.7046154,33.2061538 21.6492308,32.9723077 21.6492308,32.7384615 C21.6545847,31.7979893 21.3520051,30.8816055 20.7876923,30.1292308 C20.3421185,29.4353615 19.5869331,29.0015316 18.7630769,28.9661538 C17.9214275,28.990971 17.1449152,29.4251746 16.6830769,30.1292308 C16.1187641,30.8816055 15.8161846,31.7979893 15.8215385,32.7384615 C15.8258745,33.1707981 15.902844,33.5993312 16.0492308,34.0061538 L15.1384615,34.0061538 C14.6403117,33.5142213 14.2741658,32.9046836 14.0738462,32.2338462 C13.8217875,31.4779856 13.6949872,30.6860034 13.698392,29.8892308 Z M18.6584615,24.6153846 C18.5037272,24.6158919 18.3500421,24.6408138 18.2030769,24.6892308 C18.0355296,24.7866074 17.8822784,24.9067232 17.7476923,25.0461538 C17.5983707,25.2047144 17.485022,25.3936289 17.4153846,25.6 C17.3303771,25.7938259 17.2883876,26.0037732 17.2923077,26.2153846 C17.2948422,26.6490755 17.4470007,27.0685981 17.7230769,27.4030769 C17.964429,27.7004589 18.3247583,27.8761194 18.7076923,27.8830769 C18.8545377,27.8843576 19.0004272,27.859348 19.1384615,27.8092308 C19.3395342,27.6668465 19.5270001,27.5061615 19.6984615,27.3292308 C19.9442054,27.0496252 20.0721241,26.6857186 20.0553846,26.3138462 C20.0571218,25.8868262 19.9040888,25.4736371 19.6246154,25.1507692 C19.4052269,24.8296984 19.0470074,24.6311946 18.6584615,24.6153846 Z" id="Shape" fill="#FFCC00"></path>
        </g>
    </g>
</svg>